<?xml version="1.0" encoding="utf-8"?>
<!-- Generator: Adobe Illustrator 22.0.0, SVG Export Plug-In . SVG Version: 6.00 Build 0)  -->
<svg version="1.2" baseProfile="tiny" id="Layer_1" xmlns="http://www.w3.org/2000/svg" xmlns:xlink="http://www.w3.org/1999/xlink"
	 x="0px" y="0px" width="85px" height="132.4790955px" viewBox="0 0 85 132.4790955" xml:space="preserve">
<image width="141" height="141" xlink:href="8AB7953B.png"  transform="matrix(1 0 0 1 -25 -24)">
</image>
<linearGradient id="SVGID_1_" gradientUnits="userSpaceOnUse" x1="43.8762589" y1="132.4790955" x2="43.8762589" y2="97.2417145">
	<stop  offset="0" style="stop-color:#17649B"/>
	<stop  offset="0.1513729" style="stop-color:#227DB3"/>
	<stop  offset="0.3677695" style="stop-color:#2F9ACF"/>
	<stop  offset="0.5832741" style="stop-color:#38AEE3"/>
	<stop  offset="0.7953672" style="stop-color:#3DBBEF"/>
	<stop  offset="1" style="stop-color:#3FBFF3"/>
</linearGradient>
<path fill="url(#SVGID_1_)" d="M2.752516,114.7991714l10.9269199-12.2964935H3.1261334v-5.1051102h18.8960724v4.3890457
	L11.0954981,114.083107h10.9267073v5.1055298H2.752516V114.7991714z M25.2914639,97.3975677h6.0703201v21.791069h-6.0703201
	V97.3975677z M35.3464661,97.3975677h6.381813l5.1988297,8.4360657l5.1986198-8.4360657h6.381813v21.791069h-6.008194v-12.5142593
	l-5.5722389,8.5295792h-0.1246796l-5.5410652-8.467659v12.4523392h-5.9148979V97.3975677z M69.9018021,97.2417145h5.8213882
	L85,119.1886368h-6.4751053l-1.5875549-3.8911667h-8.4053268l-1.5563812,3.8911667h-6.3506432L69.9018021,97.2417145z
	 M75.1939316,110.5967255l-2.4280853-6.1947937l-2.459259,6.1947937H75.1939316z M2.752516,123.472084h3.7750642
	c1.0135503,0,1.811511,0.2912903,2.3183928,0.7851639c0.3672066,0.3804321,0.5700016,0.849144,0.5700016,1.4189301v0.025589
	c0,1.1528015-0.7094641,1.7481766-1.4061327,2.0518417c1.0515079,0.3168716,1.9002199,0.9250565,1.9002199,2.1409683v0.025589
	c0,1.5200043-1.2794657,2.4194641-3.2176437,2.4194641H2.752516V123.472084z M6.362956,127.4243546
	c1.2035508,0,2.0394688-0.5446243,2.0394688-1.5835495v-0.0251617c0-0.8743057-0.6966696-1.4440918-1.9635539-1.4440918H3.7406905
	v3.052803H6.362956z M6.7175813,131.4401703c1.3427997,0,2.1789308-0.5953827,2.1789308-1.5835571v-0.0251617
	c0-0.9629974-0.8107557-1.5204315-2.3561368-1.5204315H3.7406905v3.1291504H6.7175813z M28.3736095,123.472084h1.0007553v7.9429245
	h4.9911976v0.9246216h-5.9919529V123.472084z M52.2972755,128.6279144v-5.1558304h1.0007553v5.0922775
	c0,1.9132233,1.01334,2.9896851,2.7109756,2.9896851c1.6340904,0,2.6730194-0.9877472,2.6730194-2.9261322v-5.1558304h1.0007553
	v5.0799026c0,2.5841064-1.4822617,3.9271088-3.6991501,3.9271088
	C53.7921181,132.4790955,52.2972755,131.1360931,52.2972755,128.6279144z M78.5265427,123.472084h6.4101257v0.9118347H79.527298
	v3.0276413h4.8391495v0.912262H79.527298v3.1035614H85v0.9122467h-6.4734573V123.472084z M28.9165573,119.1886368H17.4551125
	v-5.1055298h11.4614449V119.1886368z M65.9289932,119.1886368h-9.9389648v-4.6930084h9.9389648V119.1886368z"/>
</svg>
